<svg width="28" height="25" viewBox="0 0 28 25" fill="none" xmlns="http://www.w3.org/2000/svg">
<path fill-rule="evenodd" clip-rule="evenodd" d="M7.90081 0C3.58908 0 0 3.25632 0 7.37711C0 12.825 3.50055 17.229 6.76851 20.172C8.42325 21.6623 10.0727 22.8276 11.3067 23.6201C11.925 24.0172 12.4421 24.3227 12.8077 24.5305C12.9906 24.6345 13.1358 24.7141 13.237 24.7687C13.2877 24.796 13.3273 24.817 13.3553 24.8317L13.3882 24.8489L13.4022 24.8561C13.7755 25.0477 14.2237 25.0481 14.597 24.8566L14.6021 24.8539L14.6118 24.8489L14.6447 24.8317C14.6727 24.817 14.7123 24.796 14.763 24.7687C14.8642 24.7141 15.0094 24.6345 15.1923 24.5305C15.5579 24.3227 16.075 24.0172 16.6933 23.6201C17.9273 22.8276 19.5767 21.6623 21.2315 20.172C24.4995 17.229 28 12.825 28 7.37711C28 3.25632 24.4123 0 20.0978 0C17.6553 0 15.4552 1.03798 14 2.68501C12.5447 1.03793 10.3443 0 7.90081 0ZM11.6135 5.80024C11.5354 5.33808 11.2046 4.99596 10.8074 4.96668C10.4102 4.93739 10.0461 5.22827 9.9203 5.67539L7.92624 12.7603L6.70682 12.7603C6.22212 12.7603 5.82918 13.2256 5.82918 13.7997C5.82918 14.3737 6.22212 14.8391 6.70682 14.8391L8.5588 14.8391C8.93657 14.8391 9.27195 14.5528 9.39141 14.1284L10.5404 10.0459L12.0864 19.2006C12.1636 19.6576 12.4882 19.998 12.8806 20.0332C13.273 20.0684 13.6373 19.79 13.7718 19.352L15.9643 13.0172L16.9714 16.6503C17.048 17.0136 17.2838 17.3 17.5885 17.3999C17.8932 17.4999 18.2198 17.398 18.4434 17.1332L20.1564 14.8391L21.2936 14.8391C21.7783 14.8391 22.1712 14.3737 22.1712 13.7997C22.1712 13.2256 21.7783 12.7603 21.2936 12.7603L19.7929 12.7603C19.5601 12.7603 19.3369 12.8698 19.1723 13.0647L18.2983 14.3651L16.9714 9.2167C16.8778 8.77341 16.5507 8.45448 16.1655 8.43078C15.7802 8.40708 15.427 8.68416 15.2951 9.11358L13.1931 15.1539L11.6135 5.80024Z" fill="#1E1A33"/>
</svg>
