<?xml version="1.0" encoding="UTF-8"?>
<svg version="1.1" xmlns="http://www.w3.org/2000/svg" width="400" height="400">
<path d="M0 0 C132 0 264 0 400 0 C400 132 400 264 400 400 C268 400 136 400 0 400 C0 268 0 136 0 0 Z " fill="#8D70DD" transform="translate(0,0)"/>
<path d="M0 0 C1.20914063 0.43054688 2.41828125 0.86109375 3.6640625 1.3046875 C14.32660146 5.48932031 28.45457046 12.99138605 34.3125 23.3125 C34.539375 23.869375 34.76625 24.42625 35 25 C35.66 25 36.32 25 37 25 C37.24105469 24.42765625 37.48210937 23.8553125 37.73046875 23.265625 C45.36073252 9.64853889 64.78102078 1.46968966 79.14599609 -2.609375 C105.22425636 -9.43294631 132.39527622 -9.66961707 159 -6 C158.50610812 2.78607656 157.63177319 11.35001785 156 20 C154.91589844 19.855625 153.83179688 19.71125 152.71484375 19.5625 C141.83470739 18.23654605 131.01663289 17.77901015 120.0625 17.75 C118.7727124 17.74097656 117.4829248 17.73195313 116.15405273 17.72265625 C97.46366403 17.78019834 77.82562438 20.91347715 63.6875 34.16796875 C55.85269724 42.53565331 53.87354405 49.50582378 51 61 C41.1 61 31.2 61 21 61 C19.68 56.38 18.36 51.76 17 47 C9.74136981 33.73904101 0.64865809 26.44709138 -13.7890625 21.7734375 C-25.0571136 18.5481874 -35.64779447 17.83341649 -47.31933594 17.86962891 C-49.36400835 17.87497128 -51.40845939 17.86966469 -53.453125 17.86328125 C-63.7524484 17.85790179 -73.79959164 18.65277625 -84 20 C-85.85479354 11.33829426 -86.54736337 2.82641419 -87 -6 C-58.88709599 -11.10315275 -26.9460623 -9.68395761 0 0 Z " fill="#FCFBFD" transform="translate(164,241)"/>
<path d="M0 0 C7.87746015 3.18890619 11.85272168 13.02854625 15 20.41015625 C18.22423518 28.76042158 19.82686169 37.33505615 16.25 45.8125 C13.75851158 50.73470882 11.59098401 54.09944302 6.6875 56.875 C1.93112613 58.32609711 -1.35746081 58.34630418 -5.85546875 56.0546875 C-10.8780205 52.8205497 -13.81418475 48.85586283 -15.58984375 43.08203125 C-16.04639941 40.76446773 -16.16869297 38.61216308 -16.1875 36.25 C-16.20167969 35.45078125 -16.21585938 34.6515625 -16.23046875 33.828125 C-15.66538277 26.89384952 -13.37586269 21.05922732 -10.25 14.9375 C-9.89873047 14.24011719 -9.54746094 13.54273437 -9.18554688 12.82421875 C-6.65688238 7.94128041 -3.90842094 3.90842094 0 0 Z " fill="#FCFAFC" transform="translate(199,89)"/>
<path d="M0 0 C1.19044922 0.01804688 2.38089844 0.03609375 3.60742188 0.0546875 C6.50999031 0.10131511 9.41079111 0.16673719 12.3125 0.25 C12.51828391 5.22088417 10.99745729 8.65321328 8.75 13 C8.38648438 13.7101123 8.02296875 14.42022461 7.6484375 15.15185547 C2.33497186 25.2812279 -4.1095278 33.88730141 -15.0625 38.1875 C-21.43217729 40.03569652 -27.20014335 39.47106599 -33.125 36.5625 C-37.20635314 32.87932765 -38.47584392 29.86387762 -39.1875 24.4375 C-38.89616273 18.33107081 -35.95101947 13.55434447 -31.73828125 9.265625 C-22.1518379 1.21094729 -12.20918397 -0.35647252 0 0 Z " fill="#FCFAFC" transform="translate(265.6875,131.75)"/>
<path d="M0 0 C5.69715017 4.78004795 8.71337676 8.88035604 9.77734375 16.328125 C8.99615447 21.57325302 6.43069983 24.44191735 2.27734375 27.578125 C-4.11370169 31.24957664 -11.1983237 31.23530373 -18.3203125 29.6875 C-29.10383587 25.92779296 -37.8466966 16.13486989 -44.66015625 7.265625 C-45.91015625 4.46875 -45.91015625 4.46875 -46.66015625 2.265625 C-33.05945575 -4.82257076 -13.75044068 -8.96504502 0 0 Z " fill="#FCFAFC" transform="translate(137.66015625,182.734375)"/>
<path d="M0 0 C0.66 0 1.32 0 2 0 C3.52483364 1.86334671 4.89574659 3.70440587 6.25 5.6875 C6.64896484 6.26822266 7.04792969 6.84894531 7.45898438 7.44726562 C14.20211068 17.53480885 18.82639981 27.68876176 18 40 C16.48471722 47.45014035 13.27542018 52.65547834 7 57 C3.38069302 58.20643566 0.80768995 58.32268559 -3 58 C-8.9486455 54.85071709 -12.43348965 50.95823966 -14.75 44.6875 C-17.93038255 34.19049968 -14.92820587 24.43313025 -10 15 C-3.66596396 4.35650564 -3.66596396 4.35650564 0 0 Z " fill="#FCFBFC" transform="translate(199,170)"/>
<path d="M0 0 C0 7.39815503 -6.51244359 12.62828335 -11.4375 17.75 C-18.82640586 24.93818855 -25.95605516 28.92744519 -36.4375 29.375 C-43.11854183 29.23734117 -47.51008776 27.23453663 -52.4375 22.8125 C-55.14400655 17.94078821 -55.65579296 13.29527537 -54.125 7.9375 C-49.22228432 1.16021657 -43.41505128 -3.78330332 -35.18359375 -5.6328125 C-22.73173007 -7.06897837 -11.52129471 -4.5447902 0 0 Z " fill="#FCFBFD" transform="translate(308,184)"/>
<path d="M0 0 C32.39858061 -0.80296431 32.39858061 -0.80296431 43 8 C47.96512088 12.83212657 50.75436773 16.90503334 51.3125 23.9375 C51.20028373 27.90247491 50.1874257 30.64073911 48 34 C42.98790179 38.542214 37.78101626 38.33561414 31.30078125 38.28515625 C23.7647865 37.63411765 17.78599837 33.25560794 12.9375 27.58984375 C8.37789047 21.34795893 4.88113286 15.1693306 2 8 C1.62617187 7.13117188 1.25234375 6.26234375 0.8671875 5.3671875 C0 3 0 3 0 0 Z " fill="#FCFBFC" transform="translate(121,132)"/>
<path d="M0 0 C-2.30471737 1.53647825 -4.33093476 2.66226759 -6.8125 3.8125 C-13.01980068 6.92184511 -17.44282108 10.49351183 -20.3046875 16.890625 C-21.90422232 21.74314635 -21.69614296 26.14569622 -19.5 30.8125 C-17.34556945 34.11194259 -15.02755516 35.42614331 -11.3046875 36.578125 C-7.20501509 37.32857351 -3.1475203 37.22947346 1 37 C1 37.66 1 38.32 1 39 C-0.69769531 38.96519531 -0.69769531 38.96519531 -2.4296875 38.9296875 C-3.91145175 38.91093099 -5.39322312 38.89273066 -6.875 38.875 C-7.62136719 38.85824219 -8.36773437 38.84148437 -9.13671875 38.82421875 C-11.09194461 38.8066041 -13.04742021 38.89679811 -15 39 C-15.66 39.66 -16.32 40.32 -17 41 C-18.67293936 40.69972883 -20.33985384 40.36442233 -22 40 C-23.485 40.495 -23.485 40.495 -25 41 C-25.12585127 34.45573413 -25.12585127 34.45573413 -24.484375 32.1328125 C-23.86267105 29.39530962 -24.0556645 26.92561351 -24.1875 24.125 C-24.23943301 18.76940786 -23.44080933 16.22728004 -20 12 C-19.49016048 10.76219373 -19.0112806 9.51122824 -18.5625 8.25 C-17 5 -17 5 -14.75 3.75 C-13.38875 3.37875 -13.38875 3.37875 -12 3 C-10.845 2.46375 -9.69 1.9275 -8.5 1.375 C-5.28749681 0.11294518 -3.38070861 -0.30733715 0 0 Z " fill="#8C72D4" transform="translate(249,133)"/>
<path d="M0 0 C3.83428028 -0.36516955 5.78812732 -0.11001082 9.25 1.6875 C12.07842969 4.06595224 13.02552263 5.49188148 14 9 C15.32 9 16.64 9 18 9 C18.14584064 12.22868746 18.23424106 15.45652365 18.3125 18.6875 C18.35439453 19.59951172 18.39628906 20.51152344 18.43945312 21.45117188 C18.56354056 28.275981 18.56354056 28.275981 15.640625 32.03125 C8.71463484 37.19500598 3.44959965 37.36915727 -5 37 C-5.33 36.34 -5.66 35.68 -6 35 C-4.80503906 34.94392578 -4.80503906 34.94392578 -3.5859375 34.88671875 C4.69091992 34.52397478 4.69091992 34.52397478 12 31 C15.0741719 26.59368695 15.87104691 22.26587449 15 17 C12.99584874 10.653521 9.23583852 6.89954563 4 3 C3.195625 2.38125 2.39125 1.7625 1.5625 1.125 C1.046875 0.75375 0.53125 0.3825 0 0 Z " fill="#917BCB" transform="translate(156,135)"/>
<path d="M0 0 C0.88623047 -0.01160156 1.77246094 -0.02320313 2.68554688 -0.03515625 C8.44154148 -0.0099659 13.25282491 0.90518695 18.68041992 2.82958984 C20.73708782 3.62775265 20.73708782 3.62775265 22.6875 2.375 C22.6875 3.035 22.6875 3.695 22.6875 4.375 C23.3475 4.375 24.0075 4.375 24.6875 4.375 C24.3575 5.365 24.0275 6.355 23.6875 7.375 C23.01847656 7.09785156 22.34945312 6.82070312 21.66015625 6.53515625 C15.41201735 4.17847567 9.56558372 2.91393584 2.9375 2.5 C2.24148682 2.45109619 1.54547363 2.40219238 0.82836914 2.35180664 C-5.52353063 2.0623663 -11.70304943 2.98675718 -17.1875 6.4375 C-20.3125 8.375 -20.3125 8.375 -22.3125 9.375 C-23.3025 9.045 -24.2925 8.715 -25.3125 8.375 C-24.6525 6.725 -23.9925 5.075 -23.3125 3.375 C-22.466875 3.436875 -21.62125 3.49875 -20.75 3.5625 C-17.26098429 3.59429934 -17.26098429 3.59429934 -14.2421875 1.88671875 C-9.56942046 -0.19575699 -5.04305476 -0.0651651 0 0 Z " fill="#917BCB" transform="translate(281.3125,176.625)"/>
<path d="M0 0 C0 0.33 0 0.66 0 1 C-1.10118164 1.03758423 -1.10118164 1.03758423 -2.22460938 1.07592773 C-15.82910187 1.54552551 -29.42113027 2.02265409 -43 3 C-43 2.34 -43 1.68 -43 1 C-41.22496094 0.80083984 -41.22496094 0.80083984 -39.4140625 0.59765625 C-38.27287964 0.46955566 -38.27287964 0.46955566 -37.10864258 0.33886719 C-35.44208975 0.15342162 -33.77525308 -0.02948929 -32.1081543 -0.20996094 C-28.76508005 -0.57243537 -25.43266596 -0.93635548 -22.10546875 -1.42578125 C-14.61116652 -2.4854526 -7.41368725 -1.19607488 0 0 Z " fill="#917CC7" transform="translate(120,232)"/>
<path d="M0 0 C-2.30471737 1.53647825 -4.33093476 2.66226759 -6.8125 3.8125 C-13.02805787 6.92598128 -17.40704643 10.50096688 -20.31640625 16.875 C-21.75959511 21.36125566 -21.49015351 25.52953947 -20 30 C-20.99 29.67 -21.98 29.34 -23 29 C-23.08160748 27.10489301 -23.13946459 25.20875496 -23.1875 23.3125 C-23.22230469 22.25675781 -23.25710937 21.20101562 -23.29296875 20.11328125 C-22.9620486 16.59670315 -21.95171146 14.89608797 -20 12 C-19.54625 10.783125 -19.0925 9.56625 -18.625 8.3125 C-17 5 -17 5 -14.75 3.75 C-13.38875 3.37875 -13.38875 3.37875 -12 3 C-10.845 2.46375 -9.69 1.9275 -8.5 1.375 C-5.28749681 0.11294518 -3.38070861 -0.30733715 0 0 Z " fill="#8E79C7" transform="translate(249,133)"/>
<path d="M0 0 C0 0.33 0 0.66 0 1 C-0.74870361 1.02505615 -1.49740723 1.0501123 -2.26879883 1.07592773 C-17.18798295 1.57974581 -32.09691102 2.13738278 -47 3 C-47 2.01 -47 1.02 -47 0 C-46.1028125 0.01160156 -45.205625 0.02320313 -44.28125 0.03515625 C-37.49923047 0.08419978 -30.82600891 -0.03965194 -24.0625 -0.5625 C-15.96205239 -1.13711303 -8.07979467 -0.69838651 0 0 Z " fill="#8D77C8" transform="translate(304,232)"/>
<path d="M0 0 C5.16604015 1.08126422 7.17300255 2.96615909 10.01953125 7.1484375 C12.60188117 12.02506643 12.6362596 17.6135831 12 23 C10.23957383 26.0807458 9.29491932 27.62428436 5.859375 28.62109375 C5.24578125 28.74613281 4.6321875 28.87117188 4 29 C4.44472656 28.46632812 4.88945312 27.93265625 5.34765625 27.3828125 C8.46874598 23.27349619 10.53349733 20.15615034 10.25 14.875 C9.35166353 9.62381497 6.80169403 6.56527027 3 3 C1.99884726 2.00115407 0.99850412 1.00149365 0 0 Z " fill="#937EC9" transform="translate(136,182)"/>
<path d="M0 0 C0.78890625 -0.02900391 1.5778125 -0.05800781 2.390625 -0.08789062 C8.16510075 -0.15129281 8.16510075 -0.15129281 11.296875 2.33203125 C11.77640625 2.98558594 12.2559375 3.63914063 12.75 4.3125 C12.06035156 4.168125 11.37070313 4.02375 10.66015625 3.875 C-1.1023012 1.55155161 -10.65058734 2.74504107 -22.25 5.3125 C-22.25 4.6525 -22.25 3.9925 -22.25 3.3125 C-15.30306071 0.05612221 -7.54529386 0.09431617 0 0 Z " fill="#927FC6" transform="translate(121.25,176.6875)"/>
<path d="M0 0 C0.66 0.33 1.32 0.66 2 1 C3.2412556 5.16874523 3.10083903 9.30546903 3.0625 13.625 C3.05347656 14.93726562 3.04445312 16.24953125 3.03515625 17.6015625 C3.02355469 18.72304687 3.01195312 19.84453125 3 21 C3 21.99 3 22.98 3 24 C2 26.1875 2 26.1875 1 28 C0.34 28 -0.32 28 -1 28 C-1.33 28.99 -1.66 29.98 -2 31 C-2.99 30.67 -3.98 30.34 -5 30 C-4.38125 29.13375 -3.7625 28.2675 -3.125 27.375 C2.38065958 18.63071713 1.45940795 9.85100366 0 0 Z " fill="#8F7AC7" transform="translate(215,112)"/>
<path d="M0 0 C1.28317892 3.84953676 1.06643637 6.94738135 1 11 C1.33 11 1.66 11 2 11 C2 12.98 2 14.96 2 17 C1.34 17 0.68 17 0 17 C-0.33 17.99 -0.66 18.98 -1 20 C-1.66 20 -2.32 20 -3 20 C-3.24613739 13.47735909 -2.53020433 7.35537418 -1 1 C-0.67 0.67 -0.34 0.34 0 0 Z " fill="#927BD0" transform="translate(324,237)"/>
<path d="M0 0 C0.9075 0.33 1.815 0.66 2.75 1 C9.11000666 2.83386695 16.64841897 2.89486308 23 1 C22.67 1.99 22.34 2.98 22 4 C17.7339205 5.03970216 13.69499722 5.13358472 9.3125 5.125 C8.63638672 5.12886719 7.96027344 5.13273438 7.26367188 5.13671875 C2.2534965 5.12674825 2.2534965 5.12674825 0 4 C0 2.68 0 1.36 0 0 Z " fill="#927ECB" transform="translate(115,210)"/>
<path d="M0 0 C1.66538968 3.74712679 0.30830562 6.29313409 -1 10 C-1.37531446 12.32694964 -1.71917202 14.65976685 -2 17 C-2.639375 17.103125 -3.27875 17.20625 -3.9375 17.3125 C-4.9584375 17.6528125 -4.9584375 17.6528125 -6 18 C-6.33 18.99 -6.66 19.98 -7 21 C-7.33 20.34 -7.66 19.68 -8 19 C-7.11921897 16.86221027 -6.14488966 14.76252897 -5.125 12.6875 C-3.20550616 8.77262535 -1.6335421 5.32920436 -1 1 C-3.97 1 -6.94 1 -10 1 C-10 0.67 -10 0.34 -10 0 C-2.25 -1.125 -2.25 -1.125 0 0 Z " fill="#917AC8" transform="translate(279,131)"/>
<path d="M0 0 C0.99 0 1.98 0 3 0 C2.79503906 0.58007812 2.59007812 1.16015625 2.37890625 1.7578125 C-0.46914743 10.01580548 -1.98190895 17.69769165 -0.375 26.375 C-0.189375 27.674375 -0.189375 27.674375 0 29 C-0.66 29.66 -1.32 30.32 -2 31 C-4.27237256 21.29242441 -3.55273396 10.59604373 -1 1 C-0.67 0.67 -0.34 0.34 0 0 Z " fill="#947FCA" transform="translate(185,187)"/>
<path d="M0 0 C0.66 0 1.32 0 2 0 C1.96519531 0.58007812 1.93039063 1.16015625 1.89453125 1.7578125 C1.66034023 8.51589629 3.23711336 12.35567004 7 18 C4.13275314 17.42655063 3.1385485 17.1385485 1 15 C1 14.01 1 13.02 1 12 C-0.65 12 -2.3 12 -4 12 C-3.71125 11.505 -3.4225 11.01 -3.125 10.5 C-1.58711584 7.08247965 -0.85152195 3.6493798 0 0 Z " fill="#8E7ACC" transform="translate(252,192)"/>
<path d="M0 0 C5.76444536 -0.12009261 11.31088437 0.00190954 17 1 C17.66 1.66 18.32 2.32 19 3 C20.98356483 3.71408334 22.98315437 4.38617742 25 5 C25 5.66 25 6.32 25 7 C23.94941406 6.73445312 22.89882812 6.46890625 21.81640625 6.1953125 C14.56308403 4.36816609 7.31488991 2.56747641 0 1 C0 0.67 0 0.34 0 0 Z " fill="#9784CD" transform="translate(141,235)"/>
<path d="M0 0 C3.9652407 -0.02497729 7.93045005 -0.0429894 11.89575195 -0.05493164 C13.89731458 -0.06235104 15.89885533 -0.07506659 17.90039062 -0.08789062 C24.69125925 -0.10499609 31.27165501 0.06201996 38 1 C38 1.33 38 1.66 38 2 C35.03 2.66 32.06 3.32 29 4 C29 3.34 29 2.68 29 2 C19.43 1.67 9.86 1.34 0 1 C0 0.67 0 0.34 0 0 Z " fill="#8A76C6" transform="translate(271,258)"/>
<path d="M0 0 C1.25683594 0.49113281 1.25683594 0.49113281 2.5390625 0.9921875 C6.3312931 2.09647136 9.43553543 2.19932952 13.375 2.125 C15.24285156 2.09792969 15.24285156 2.09792969 17.1484375 2.0703125 C18.08945312 2.04710937 19.03046875 2.02390625 20 2 C20 2.99 20 3.98 20 5 C6.66997819 5.39399079 6.66997819 5.39399079 1 3 C0.67 2.01 0.34 1.02 0 0 Z " fill="#947FCC" transform="translate(260,210)"/>
<path d="M0 0 C0.99 0.33 1.98 0.66 3 1 C3 1.66 3 2.32 3 3 C3.66 3 4.32 3 5 3 C6.35386936 4.65002828 7.68678142 6.3174387 9 8 C9.66 8.33 10.32 8.66 11 9 C11 8.01 11 7.02 11 6 C12.32 6.33 13.64 6.66 15 7 C13.71937515 8.7074998 12.38232443 10.37373596 11 12 C10.34 12 9.68 12 9 12 C7.66666667 10.33333333 6.33333333 8.66666667 5 7 C3.06079733 5.24140935 1.05068369 3.63122567 -1 2 C-0.67 1.34 -0.34 0.68 0 0 Z " fill="#917DCA" transform="translate(190,254)"/>
<path d="M0 0 C0.66 0.33 1.32 0.66 2 1 C1.83628906 1.84820312 1.67257813 2.69640625 1.50390625 3.5703125 C0.99051555 7.0645531 0.90149261 10.34627574 0.9375 13.875 C0.94652344 15.02742187 0.95554688 16.17984375 0.96484375 17.3671875 C0.97644531 18.23601562 0.98804688 19.10484375 1 20 C0.01 19.34 -0.98 18.68 -2 18 C-2.36328125 15.13671875 -2.36328125 15.13671875 -2.3125 11.6875 C-2.30863281 10.55699219 -2.30476562 9.42648438 -2.30078125 8.26171875 C-2.00972931 5.10550618 -1.34205161 2.8498546 0 0 Z " fill="#8D77C8" transform="translate(183,113)"/>
<path d="M0 0 C7.30709024 0.37154696 7.30709024 0.37154696 10.6875 3.4375 C11.450625 4.283125 12.21375 5.12875 13 6 C15.66533035 7.319018 15.66533035 7.319018 18 8 C17.01 9.485 17.01 9.485 16 11 C15.34773437 10.52949219 14.69546875 10.05898437 14.0234375 9.57421875 C9.47724667 6.33556068 5.1014346 3.28222074 0 1 C0 0.67 0 0.34 0 0 Z " fill="#927DCD" transform="translate(172,244)"/>
<path d="M0 0 C3.75117548 0.60611453 6.79106712 1.67935272 10.1875 3.375 C11.04730469 3.79523438 11.90710938 4.21546875 12.79296875 4.6484375 C15 6 15 6 17 9 C15.35 8.67 13.7 8.34 12 8 C12 7.34 12 6.68 12 6 C11.01 6 10.02 6 9 6 C9 5.34 9 4.68 9 4 C7.02 4 5.04 4 3 4 C2.67 3.01 2.34 2.02 2 1 C1.34 0.67 0.68 0.34 0 0 Z " fill="#8F7CC9" transform="translate(151,263)"/>
<path d="M0 0 C-3.30998105 2.20665404 -5.82021436 2.78262095 -9.6875 3.625 C-10.86699219 3.88539063 -12.04648438 4.14578125 -13.26171875 4.4140625 C-14.61716797 4.70410156 -14.61716797 4.70410156 -16 5 C-16 4.01 -16 3.02 -16 2 C-10.54538831 0.61470179 -5.63281599 -0.2396943 0 0 Z " fill="#8C78C8" transform="translate(256,235)"/>
<path d="M0 0 C0.78375 0.165 1.5675 0.33 2.375 0.5 C6.93966142 1.12960847 11.40072601 1.08180527 16 1 C16 1.33 16 1.66 16 2 C14.98679688 2.19916016 14.98679688 2.19916016 13.953125 2.40234375 C12.61507812 2.66724609 12.61507812 2.66724609 11.25 2.9375 C10.36828125 3.11152344 9.4865625 3.28554687 8.578125 3.46484375 C6.0418993 3.9468129 6.0418993 3.9468129 3.796875 4.69140625 C2.90742188 4.84416016 2.90742188 4.84416016 2 5 C1.34 4.34 0.68 3.68 0 3 C0 2.01 0 1.02 0 0 Z " fill="#8A71CF" transform="translate(189,227)"/>
<path d="M0 0 C0.99 0.33 1.98 0.66 3 1 C3 1.66 3 2.32 3 3 C2.34 3 1.68 3 1 3 C1 5.64 1 8.28 1 11 C-0.89213369 8.61426621 -2.02391783 6.92824652 -3 4 C-2.34 4 -1.68 4 -1 4 C-0.67 2.68 -0.34 1.36 0 0 Z " fill="#8F78D0" transform="translate(211,176)"/>
<path d="M0 0 C0.33 0.99 0.66 1.98 1 3 C-1.15859924 6.83750975 -3.28595371 9.61239881 -7 12 C-7.66 11.67 -8.32 11.34 -9 11 C-8.51789063 10.45730469 -8.03578125 9.91460937 -7.5390625 9.35546875 C-6.90742188 8.64003906 -6.27578125 7.92460937 -5.625 7.1875 C-4.68527344 6.12595703 -4.68527344 6.12595703 -3.7265625 5.04296875 C-1.859401 2.91196181 -1.859401 2.91196181 0 0 Z " fill="#8D79C7" transform="translate(270,152)"/>
<path d="M0 0 C5.28 0 10.56 0 16 0 C16 1.32 16 2.64 16 4 C10.72 3.01 5.44 2.02 0 1 C0 0.67 0 0.34 0 0 Z " fill="#9782D2" transform="translate(139,131)"/>
<path d="M0 0 C3.33855319 2.99318562 5.27398609 5.85756662 7 10 C7 11.32 7 12.64 7 14 C6.34 14 5.68 14 5 14 C4.35089846 12.41800369 3.70585306 10.83434276 3.0625 9.25 C2.70285156 8.36828125 2.34320313 7.4865625 1.97265625 6.578125 C1.14643424 4.38813896 0.50630057 2.28101729 0 0 Z " fill="#917EC5" transform="translate(176,280)"/>
<path d="M0 0 C0.66 0.33 1.32 0.66 2 1 C0.73882275 4.88862987 -0.45264167 6.89375599 -4 9 C-4.66 9 -5.32 9 -6 9 C-6 8.01 -6 7.02 -6 6 C-5.38125 5.7525 -4.7625 5.505 -4.125 5.25 C-1.64931313 3.79371361 -1.04874998 2.62187494 0 0 Z " fill="#F3E9FD" transform="translate(169,160)"/>
<path d="M0 0 C0.33 0 0.66 0 1 0 C0.67 4.29 0.34 8.58 0 13 C-0.99 13.33 -1.98 13.66 -3 14 C-2.69147815 12.041036 -2.3780582 10.08284287 -2.0625 8.125 C-1.88847656 7.03445313 -1.71445313 5.94390625 -1.53515625 4.8203125 C-1 2 -1 2 0 0 Z " fill="#937FCC" transform="translate(218,288)"/>
<path d="M0 0 C2.64 0 5.28 0 8 0 C8 1.32 8 2.64 8 4 C6.02 4 4.04 4 2 4 C2 3.34 2 2.68 2 2 C1.34 1.34 0.68 0.68 0 0 Z " fill="#F1ECF4" transform="translate(264,234)"/>
<path d="M0 0 C0.33 1.32 0.66 2.64 1 4 C0.34 4 -0.32 4 -1 4 C-1 4.66 -1 5.32 -1 6 C-2.62553283 7.70680947 -4.29115995 9.37660195 -6 11 C-6.66 10.67 -7.32 10.34 -8 10 C-5.36 6.7 -2.72 3.4 0 0 Z " fill="#917DCB" transform="translate(309,186)"/>
<path d="M0 0 C2.31 1.98 4.62 3.96 7 6 C6.67 6.66 6.34 7.32 6 8 C5.34 7.34 4.68 6.68 4 6 C2.02 6.99 2.02 6.99 0 8 C-0.33 6.68 -0.66 5.36 -1 4 C-0.34 4 0.32 4 1 4 C0.67 2.68 0.34 1.36 0 0 Z " fill="#937CD8" transform="translate(134,159)"/>
<path d="M0 0 C0.53625 0.7425 1.0725 1.485 1.625 2.25 C4.15264739 5.17674961 6.71827368 6.98621339 10 9 C7 10 7 10 4 9 C4 8.34 4 7.68 4 7 C3.34 7 2.68 7 2 7 C0 4 0 4 0 0 Z " fill="#937FCB" transform="translate(185,136)"/>
<path d="M0 0 C-2.32657339 1.55104893 -4.51231096 2.82336701 -7 4.0625 C-8.0209375 4.57490234 -8.0209375 4.57490234 -9.0625 5.09765625 C-11 6 -11 6 -14 7 C-12.93813626 3.57843906 -11.93942552 2.96799839 -8.6875 1.25 C-5.44511292 0.15088574 -3.35841908 -0.30531083 0 0 Z " fill="#947FCC" transform="translate(249,133)"/>
<path d="M0 0 C0 3 0 3 -1 6 C-1.66 6 -2.32 6 -3 6 C-3 5.34 -3 4.68 -3 4 C-4.98 4.33 -6.96 4.66 -9 5 C-6.14693203 2.67527795 -3.45925163 1.2491742 0 0 Z " fill="#9480CF" transform="translate(246,263)"/>
<path d="M0 0 C0.66 0.33 1.32 0.66 2 1 C1.67 1.66 1.34 2.32 1 3 C0.01 3 -0.98 3 -2 3 C-2 3.66 -2 4.32 -2 5 C-6.38461538 8 -6.38461538 8 -9 8 C-9 7.01 -9 6.02 -9 5 C-8.43410156 4.72285156 -7.86820312 4.44570312 -7.28515625 4.16015625 C-6.55167969 3.79792969 -5.81820313 3.43570313 -5.0625 3.0625 C-3.96615234 2.52302734 -3.96615234 2.52302734 -2.84765625 1.97265625 C-1.03750973 1.13628173 -1.03750973 1.13628173 0 0 Z " fill="#927DCA" transform="translate(290,206)"/>
<path d="M0 0 C0.66 0.99 1.32 1.98 2 3 C2.99 3.33 3.98 3.66 5 4 C5.6875 6.0625 5.6875 6.0625 6 8 C0.25 6.375 0.25 6.375 -2 3 C-1.34 3 -0.68 3 0 3 C0 2.01 0 1.02 0 0 Z " fill="#EBE1F8" transform="translate(232,162)"/>
<path d="M0 0 C2.33944736 0.28730055 4.6739143 0.61936779 7 1 C7 1.33 7 1.66 7 2 C4.69 2 2.38 2 0 2 C0.33 2.763125 0.66 3.52625 1 4.3125 C2 7 2 7 2 10 C1.34 10 0.68 10 0 10 C-1.49106457 7.01787087 -1.11941467 4.28390342 -1 1 C-0.67 0.67 -0.34 0.34 0 0 Z " fill="#917CC5" transform="translate(121,130)"/>
<path d="M0 0 C1 2 1 2 0.75 4 C0 6 0 6 -3 8 C-3.33 8.99 -3.66 9.98 -4 11 C-4.66 11 -5.32 11 -6 11 C-4.74194623 6.49197399 -3.09592835 3.5087188 0 0 Z " fill="#9380C4" transform="translate(225,277)"/>
<path d="M0 0 C1.55693206 2.33539809 2.90200646 4.57968756 4.1875 7.0625 C4.55230469 7.75472656 4.91710937 8.44695312 5.29296875 9.16015625 C5.52628906 9.76730469 5.75960937 10.37445313 6 11 C5.67 11.66 5.34 12.32 5 13 C0.87010523 8.73688282 0.38728235 5.71241466 0 0 Z " fill="#9380C7" transform="translate(123,140)"/>
<path d="M0 0 C-1.45537568 0.83848804 -2.91440373 1.67063934 -4.375 2.5 C-5.59316406 3.19609375 -5.59316406 3.19609375 -6.8359375 3.90625 C-9 5 -9 5 -11 5 C-11 4.01 -11 3.02 -11 2 C-4.03571429 -1.34821429 -4.03571429 -1.34821429 0 0 Z " fill="#8E78CA" transform="translate(228,245)"/>
<path d="M0 0 C0.78375 0.185625 1.5675 0.37125 2.375 0.5625 C4.97089775 1.25962266 4.97089775 1.25962266 7 0 C7 0.66 7 1.32 7 2 C7.66 2 8.32 2 9 2 C8.67 2.99 8.34 3.98 8 5 C5.03 4.01 2.06 3.02 -1 2 C-0.67 1.34 -0.34 0.68 0 0 Z " fill="#9681CF" transform="translate(297,179)"/>
<path d="M0 0 C2.31 0 4.62 0 7 0 C6.67 0.99 6.34 1.98 6 3 C5.34 3 4.68 3 4 3 C3.01 3.66 2.02 4.32 1 5 C0.67 3.35 0.34 1.7 0 0 Z " fill="#F0E6FC" transform="translate(121,132)"/>
<path d="M0 0 C0.33 0.99 0.66 1.98 1 3 C-0.98 4.32 -2.96 5.64 -5 7 C-5.66 6.67 -6.32 6.34 -7 6 C-4.69 4.02 -2.38 2.04 0 0 Z " fill="#917DC9" transform="translate(233,270)"/>
<path d="M0 0 C1.98 0 3.96 0 6 0 C6 1.65 6 3.3 6 5 C5.01 5.495 5.01 5.495 4 6 C3.67 5.01 3.34 4.02 3 3 C2.01 2.67 1.02 2.34 0 2 C0 1.34 0 0.68 0 0 Z " fill="#EEE2FB" transform="translate(272,132)"/>
<path d="M0 0 C3.63 0.33 7.26 0.66 11 1 C11 1.33 11 1.66 11 2 C8.03 2.66 5.06 3.32 2 4 C2 3.34 2 2.68 2 2 C1.34 2 0.68 2 0 2 C0 1.34 0 0.68 0 0 Z " fill="#927ECF" transform="translate(298,258)"/>
<path d="M0 0 C-0.33 1.65 -0.66 3.3 -1 5 C-1.66 5 -2.32 5 -3 5 C-3.12375 4.360625 -3.2475 3.72125 -3.375 3.0625 C-3.684375 2.0415625 -3.684375 2.0415625 -4 1 C-4.66 0.67 -5.32 0.34 -6 0 C-3 -1 -3 -1 0 0 Z " fill="#917AD8" transform="translate(209,227)"/>
<path d="M0 0 C2 3 2 3 1.625 5.1875 C1.41875 5.785625 1.2125 6.38375 1 7 C0.67 6.34 0.34 5.68 0 5 C-0.99 5 -1.98 5 -3 5 C-1.125 1.125 -1.125 1.125 0 0 Z " fill="#8F78CF" transform="translate(212,221)"/>
<path d="M0 0 C2.64 0.99 5.28 1.98 8 3 C7.67 3.99 7.34 4.98 7 6 C6.34 5.34 5.68 4.68 5 4 C3.01178687 3.60235737 1.01055661 3.26224651 -1 3 C-0.67 2.01 -0.34 1.02 0 0 Z " fill="#F4EBFE" transform="translate(301,182)"/>
<path d="M0 0 C1.32 0 2.64 0 4 0 C4.33 2.31 4.66 4.62 5 7 C3.29115995 5.37660195 1.62553283 3.70680947 0 2 C0 1.34 0 0.68 0 0 Z " fill="#9380CB" transform="translate(201,170)"/>
<path d="M0 0 C0.66 0.33 1.32 0.66 2 1 C0.02 5.455 0.02 5.455 -2 10 C-2.33 10 -2.66 10 -3 10 C-3.36923077 3.47692308 -3.36923077 3.47692308 -1.5 1.0625 C-1.005 0.711875 -0.51 0.36125 0 0 Z " fill="#927CCB" transform="translate(188,102)"/>
<path d="M0 0 C1.65 1.65 3.3 3.3 5 5 C4.67 5.99 4.34 6.98 4 8 C2.35 6.02 0.7 4.04 -1 2 C-0.67 1.34 -0.34 0.68 0 0 Z " fill="#F7EEFC" transform="translate(171,270)"/>
<path d="M0 0 C2.475 0.99 2.475 0.99 5 2 C4.34 3.32 3.68 4.64 3 6 C1.68 4.68 0.36 3.36 -1 2 C-0.67 1.34 -0.34 0.68 0 0 Z " fill="#F2EDFA" transform="translate(165,266)"/>
<path d="M0 0 C1.98 0.99 3.96 1.98 6 3 C5.67 3.66 5.34 4.32 5 5 C2.5625 4.625 2.5625 4.625 0 4 C-0.33 3.34 -0.66 2.68 -1 2 C-0.67 1.34 -0.34 0.68 0 0 Z " fill="#937CD8" transform="translate(190,224)"/>
<path d="M0 0 C0.33 0 0.66 0 1 0 C1 1.98 1 3.96 1 6 C-0.32 6.33 -1.64 6.66 -3 7 C-1.125 2.25 -1.125 2.25 0 0 Z " fill="#9178CF" transform="translate(216,214)"/>
<path d="M0 0 C2.475 0.99 2.475 0.99 5 2 C4.67 2.99 4.34 3.98 4 5 C2.68 4.67 1.36 4.34 0 4 C0 2.68 0 1.36 0 0 Z " fill="#8E76D0" transform="translate(115,210)"/>
<path d="M0 0 C0.99 0.33 1.98 0.66 3 1 C3.33 1.99 3.66 2.98 4 4 C1.36 4.33 -1.28 4.66 -4 5 C-2.68 3.35 -1.36 1.7 0 0 Z " fill="#977FD4" transform="translate(300,197)"/>
<path d="M0 0 C0.66 0.33 1.32 0.66 2 1 C2.625 3.5625 2.625 3.5625 3 6 C2.01 6 1.02 6 0 6 C-0.66 4.35 -1.32 2.7 -2 1 C-1.34 0.67 -0.68 0.34 0 0 Z " fill="#F6F1FA" transform="translate(241,136)"/>
<path d="M0 0 C2.64 0.33 5.28 0.66 8 1 C8 1.33 8 1.66 8 2 C4.7 2.33 1.4 2.66 -2 3 C-1.34 2.01 -0.68 1.02 0 0 Z " fill="#8B73CA" transform="translate(251,130)"/>
</svg>
